<?xml version="1.0" encoding="UTF-8"?>
<!DOCTYPE svg PUBLIC "-//W3C//DTD SVG 1.1//EN" "http://www.w3.org/Graphics/SVG/1.1/DTD/svg11.dtd">
<svg xmlns="http://www.w3.org/2000/svg" version="1.1" width="471px" height="225px" style="shape-rendering:geometricPrecision; text-rendering:geometricPrecision; image-rendering:optimizeQuality; fill-rule:evenodd; clip-rule:evenodd" xmlns:xlink="http://www.w3.org/1999/xlink">
<g><path style="opacity:1" fill="#fefeff" d="M -0.5,-0.5 C 70.8333,-0.5 142.167,-0.5 213.5,-0.5C 192.573,4.52533 175.407,15.192 162,31.5C 172.803,23.1775 184.97,19.6775 198.5,21C 205.804,25.1079 208.637,31.2746 207,39.5C 205.915,38.7069 204.748,38.0402 203.5,37.5C 199.973,27.4713 192.973,23.9713 182.5,27C 179.798,28.3399 177.131,29.6733 174.5,31C 178.466,30.9741 181.466,32.6408 183.5,36C 139.75,36.0104 96.083,36.6771 52.5,38C 51,39.5 49.5,41 48,42.5C 47.6667,62.8333 47.3333,83.1667 47,103.5C 34.9889,116.843 25.4889,131.843 18.5,148.5C 18.8457,149.696 19.3457,149.696 20,148.5C 27.556,136.074 36.556,124.741 47,114.5C 47.6667,116.833 47.6667,119.167 47,121.5C 27.9014,140.53 16.068,163.363 11.5,190C 10.3719,198.098 13.7053,203.098 21.5,205C 41.1839,206.497 59.8506,202.831 77.5,194C 123.5,193.667 169.5,193.333 215.5,193C 217.808,192.009 220.141,191.176 222.5,190.5C 223.289,190.217 223.956,189.717 224.5,189C 179.331,188.833 134.331,188.333 89.5,187.5C 135.168,187.667 180.835,187.5 226.5,187C 227.308,186.692 227.975,186.192 228.5,185.5C 229.562,182.897 229.728,180.23 229,177.5C 221.451,166.236 214.285,154.736 207.5,143C 208.317,141.51 209.15,140.01 210,138.5C 210.333,117.833 210.667,97.1667 211,76.5C 219.966,58.3545 222.966,39.3545 220,19.5C 230.892,29.8422 235.226,42.5088 233,57.5C 231.619,64.3592 229.952,71.0258 228,77.5C 237.614,64.2704 243.947,49.6038 247,33.5C 249.712,17.9281 244.212,6.59478 230.5,-0.5C 310.5,-0.5 390.5,-0.5 470.5,-0.5C 470.5,18.1667 470.5,36.8333 470.5,55.5C 466.167,55.5 461.833,55.5 457.5,55.5C 456.833,61.1667 456.167,66.8333 455.5,72.5C 451.044,66.8726 446.377,61.3726 441.5,56C 437.514,55.5012 433.514,55.3345 429.5,55.5C 429.5,69.5 429.5,83.5 429.5,97.5C 434.167,97.5 438.833,97.5 443.5,97.5C 443.334,91.4908 443.501,85.4908 444,79.5C 449.021,85.0196 453.854,90.6863 458.5,96.5C 462.445,97.4909 466.445,97.8242 470.5,97.5C 470.5,139.833 470.5,182.167 470.5,224.5C 319.5,224.5 168.5,224.5 17.5,224.5C 24.7268,222.355 32.0601,220.189 39.5,218C 32.1806,218.284 24.8473,218.284 17.5,218C 9.99693,218.013 5.16359,214.513 3,207.5C 2.50098,203.179 2.33432,198.846 2.5,194.5C 4.13058,190.313 5.29725,185.979 6,181.5C 3.79809,185.606 2.29809,189.94 1.5,194.5C 0.951844,196.626 0.285178,198.626 -0.5,200.5C -0.5,133.5 -0.5,66.5 -0.5,-0.5 Z"/></g>
<g><path style="opacity:1" fill="#41b8ff" d="M 213.5,-0.5 C 219.167,-0.5 224.833,-0.5 230.5,-0.5C 244.212,6.59478 249.712,17.9281 247,33.5C 243.947,49.6038 237.614,64.2704 228,77.5C 229.952,71.0258 231.619,64.3592 233,57.5C 235.226,42.5088 230.892,29.8422 220,19.5C 222.966,39.3545 219.966,58.3545 211,76.5C 210.667,97.1667 210.333,117.833 210,138.5C 209.15,140.01 208.317,141.51 207.5,143C 214.285,154.736 221.451,166.236 229,177.5C 229.728,180.23 229.562,182.897 228.5,185.5C 227.975,186.192 227.308,186.692 226.5,187C 180.835,187.5 135.168,187.667 89.5,187.5C 88.7109,187.783 88.0442,188.283 87.5,189C 132.669,189.167 177.669,189.667 222.5,190.5C 220.141,191.176 217.808,192.009 215.5,193C 169.5,193.333 123.5,193.667 77.5,194C 59.8506,202.831 41.1839,206.497 21.5,205C 13.7053,203.098 10.3719,198.098 11.5,190C 16.068,163.363 27.9014,140.53 47,121.5C 47.6667,119.167 47.6667,116.833 47,114.5C 36.556,124.741 27.556,136.074 20,148.5C 19.3457,149.696 18.8457,149.696 18.5,148.5C 25.4889,131.843 34.9889,116.843 47,103.5C 47.3333,83.1667 47.6667,62.8333 48,42.5C 49.5,41 51,39.5 52.5,38C 96.083,36.6771 139.75,36.0104 183.5,36C 181.466,32.6408 178.466,30.9741 174.5,31C 177.131,29.6733 179.798,28.3399 182.5,27C 192.973,23.9713 199.973,27.4713 203.5,37.5C 204.748,38.0402 205.915,38.7069 207,39.5C 208.637,31.2746 205.804,25.1079 198.5,21C 184.97,19.6775 172.803,23.1775 162,31.5C 175.407,15.192 192.573,4.52533 213.5,-0.5 Z"/></g>
<g><path style="opacity:1" fill="#fefeff" d="M 58.5,44.5 C 100.5,44.5 142.5,44.5 184.5,44.5C 174.887,78.9182 157.887,109.085 133.5,135C 108.833,135.667 84.1667,135.667 59.5,135C 57.714,134.215 56.214,133.049 55,131.5C 54.3333,103.833 54.3333,76.1667 55,48.5C 56.3756,47.2949 57.5423,45.9616 58.5,44.5 Z"/></g>
<g><path style="opacity:1" fill="#fbfdff" d="M 200.5,47.5 C 201.117,47.6107 201.617,47.944 202,48.5C 202.667,54.1667 202.667,59.8333 202,65.5C 193.707,90.5885 181.873,113.755 166.5,135C 161.5,135.667 156.5,135.667 151.5,135C 174.69,109.797 191.024,80.6304 200.5,47.5 Z"/></g>
<g><path style="opacity:1" fill="#3eb7ff" d="M 265.5,55.5 C 270.544,55.1725 275.544,55.5059 280.5,56.5C 286.407,70.0589 292.407,83.5589 298.5,97C 293.467,97.8289 288.467,97.6623 283.5,96.5C 282.253,94.677 281.586,92.677 281.5,90.5C 275.824,90.3339 270.157,90.5006 264.5,91C 263.331,93.0065 262.665,95.1732 262.5,97.5C 257.456,97.8275 252.456,97.4941 247.5,96.5C 253.79,82.9246 259.79,69.258 265.5,55.5 Z"/></g>
<g><path style="opacity:1" fill="#3fb7ff" d="M 300.5,55.5 C 311.245,55.0712 321.912,55.5712 332.5,57C 345.906,64.227 349.072,74.727 342,88.5C 339.292,92.1043 335.792,94.6043 331.5,96C 321.223,97.3698 310.889,97.8698 300.5,97.5C 300.5,83.5 300.5,69.5 300.5,55.5 Z"/></g>
<g><path style="opacity:1" fill="#3bb6ff" d="M 365.5,81.5 C 365.217,80.7109 364.717,80.0442 364,79.5C 363.501,85.4908 363.334,91.4908 363.5,97.5C 359.167,97.5 354.833,97.5 350.5,97.5C 350.5,83.5 350.5,69.5 350.5,55.5C 354.514,55.3345 358.514,55.5012 362.5,56C 367.375,62.914 371.875,70.0807 376,77.5C 380.5,70.3333 385,63.1667 389.5,56C 393.486,55.5012 397.486,55.3345 401.5,55.5C 401.5,69.5 401.5,83.5 401.5,97.5C 397.167,97.5 392.833,97.5 388.5,97.5C 388.666,91.1579 388.5,84.8246 388,78.5C 385.333,83.1667 382.667,87.8333 380,92.5C 377.333,93.8333 374.667,93.8333 372,92.5C 369.822,88.8057 367.655,85.1391 365.5,81.5 Z"/></g>
<g><path style="opacity:1" fill="#38b6ff" d="M 408.5,55.5 C 413.167,55.5 417.833,55.5 422.5,55.5C 422.5,69.5 422.5,83.5 422.5,97.5C 417.833,97.5 413.167,97.5 408.5,97.5C 408.5,83.5 408.5,69.5 408.5,55.5 Z"/></g>
<g><path style="opacity:1" fill="#39b6ff" d="M 455.5,72.5 C 455.56,73.0431 455.893,73.3764 456.5,73.5C 457.496,67.5368 457.829,61.5368 457.5,55.5C 461.833,55.5 466.167,55.5 470.5,55.5C 470.5,69.5 470.5,83.5 470.5,97.5C 466.445,97.8242 462.445,97.4909 458.5,96.5C 453.854,90.6863 449.021,85.0196 444,79.5C 443.501,85.4908 443.334,91.4908 443.5,97.5C 438.833,97.5 434.167,97.5 429.5,97.5C 429.5,83.5 429.5,69.5 429.5,55.5C 433.514,55.3345 437.514,55.5012 441.5,56C 446.377,61.3726 451.044,66.8726 455.5,72.5 Z"/></g>
<g><path style="opacity:1" fill="#ccecff" d="M 457.5,55.5 C 457.829,61.5368 457.496,67.5368 456.5,73.5C 455.893,73.3764 455.56,73.0431 455.5,72.5C 456.167,66.8333 456.833,61.1667 457.5,55.5 Z"/></g>
<g><path style="opacity:1" fill="#fcfeff" d="M 315.5,66.5 C 327.649,64.6309 332.482,69.6309 330,81.5C 326.161,85.836 321.328,87.5027 315.5,86.5C 315.5,79.8333 315.5,73.1667 315.5,66.5 Z"/></g>
<g><path style="opacity:1" fill="#f3faff" d="M 272.5,69.5 C 274.058,72.2919 275.391,75.2919 276.5,78.5C 274.257,79.4742 271.924,79.8076 269.5,79.5C 270.101,76.0321 271.101,72.6988 272.5,69.5 Z"/></g>
<g><path style="opacity:1" fill="#d2eeff" d="M 365.5,81.5 C 364.833,86.8333 364.167,92.1667 363.5,97.5C 363.334,91.4908 363.501,85.4908 364,79.5C 364.717,80.0442 365.217,80.7109 365.5,81.5 Z"/></g>
<g><path style="opacity:1" fill="#7bceff" d="M 202.5,129.5 C 202.828,117.322 202.495,105.322 201.5,93.5C 201.783,92.7109 202.283,92.0442 203,91.5C 203.827,104.34 203.66,117.007 202.5,129.5 Z"/></g>
<g><path style="opacity:1" fill="#fdfeff" d="M 201.5,93.5 C 202.495,105.322 202.828,117.322 202.5,129.5C 201.746,132.091 200.079,133.924 197.5,135C 188.482,135.832 179.482,135.665 170.5,134.5C 182.01,121.666 192.343,107.999 201.5,93.5 Z"/></g>
<g><path style="opacity:1" fill="#3fb7ff" d="M 253.5,126.5 C 262.173,126.334 270.84,126.5 279.5,127C 291.156,132.641 293.489,140.974 286.5,152C 284.33,153.586 281.996,154.92 279.5,156C 274.177,156.499 268.844,156.666 263.5,156.5C 263.5,160.5 263.5,164.5 263.5,168.5C 260.167,168.5 256.833,168.5 253.5,168.5C 253.5,154.5 253.5,140.5 253.5,126.5 Z"/></g>
<g><path style="opacity:1" fill="#3eb7ff" d="M 310.5,126.5 C 314.226,126.177 317.893,126.511 321.5,127.5C 327.5,140.833 333.5,154.167 339.5,167.5C 336.216,168.657 332.882,168.824 329.5,168C 328.167,165.333 326.833,162.667 325.5,160C 318.808,159.169 312.142,159.336 305.5,160.5C 304.072,167.882 299.739,170.215 292.5,167.5C 298.787,153.929 304.787,140.262 310.5,126.5 Z"/></g>
<g><path style="opacity:1" fill="#40b7ff" d="M 371.5,149.5 C 371.783,150.289 372.283,150.956 373,151.5C 373.5,143.173 373.666,134.84 373.5,126.5C 376.5,126.5 379.5,126.5 382.5,126.5C 382.5,140.5 382.5,154.5 382.5,168.5C 379.813,168.664 377.146,168.497 374.5,168C 367.667,159.833 360.833,151.667 354,143.5C 353.5,151.827 353.334,160.16 353.5,168.5C 350.167,168.5 346.833,168.5 343.5,168.5C 343.5,154.5 343.5,140.5 343.5,126.5C 346.518,126.335 349.518,126.502 352.5,127C 358.733,134.664 365.066,142.164 371.5,149.5 Z"/></g>
<g><path style="opacity:1" fill="#bde7ff" d="M 373.5,126.5 C 373.666,134.84 373.5,143.173 373,151.5C 372.283,150.956 371.783,150.289 371.5,149.5C 372.167,141.833 372.833,134.167 373.5,126.5 Z"/></g>
<g><path style="opacity:1" fill="#40b8ff" d="M 392.5,126.5 C 403.167,126.5 413.833,126.5 424.5,126.5C 424.5,129.167 424.5,131.833 424.5,134.5C 417.167,134.5 409.833,134.5 402.5,134.5C 402.5,137.5 402.5,140.5 402.5,143.5C 409.167,143.5 415.833,143.5 422.5,143.5C 422.5,145.833 422.5,148.167 422.5,150.5C 415.833,150.5 409.167,150.5 402.5,150.5C 402.5,153.833 402.5,157.167 402.5,160.5C 410.167,160.5 417.833,160.5 425.5,160.5C 425.5,163.167 425.5,165.833 425.5,168.5C 414.5,168.5 403.5,168.5 392.5,168.5C 392.5,154.5 392.5,140.5 392.5,126.5 Z"/></g>
<g><path style="opacity:1" fill="#3ab6ff" d="M 433.5,126.5 C 436.833,126.5 440.167,126.5 443.5,126.5C 443.5,137.833 443.5,149.167 443.5,160.5C 450.5,160.5 457.5,160.5 464.5,160.5C 464.5,163.167 464.5,165.833 464.5,168.5C 454.167,168.5 443.833,168.5 433.5,168.5C 433.5,154.5 433.5,140.5 433.5,126.5 Z"/></g>
<g><path style="opacity:1" fill="#f9fcff" d="M 30.5,186.5 C 42.5,187.167 54.5,187.833 66.5,188.5C 66.1667,188.5 65.8333,188.5 65.5,188.5C 54.8126,188.168 44.1459,188.501 33.5,189.5C 33.6236,190.107 33.9569,190.44 34.5,190.5C 43.0342,192.557 43.2009,193.557 35,193.5C 29.6595,194.48 25.9928,192.48 24,187.5C 24.3356,164.154 32.0023,143.487 47,125.5C 47.3333,130.167 47.6667,134.833 48,139.5C 48.4652,140.931 49.2986,142.097 50.5,143C 43.1249,154.918 35.6249,166.751 28,178.5C 26.8343,181.927 27.6676,184.593 30.5,186.5 Z"/></g>
<g><path style="opacity:1" fill="#fdfeff" d="M 263.5,134.5 C 267.514,134.334 271.514,134.501 275.5,135C 282.059,139.245 282.059,143.578 275.5,148C 271.514,148.499 267.514,148.666 263.5,148.5C 263.5,143.833 263.5,139.167 263.5,134.5 Z"/></g>
<g><path style="opacity:1" fill="#f8fcff" d="M 321.5,150.5 C 317.702,151.483 313.702,151.817 309.5,151.5C 311.377,146.366 313.544,141.366 316,136.5C 318.134,141.072 319.967,145.739 321.5,150.5 Z"/></g>
<g><path style="opacity:1" fill="#fefeff" d="M 60.5,145.5 C 81.5026,145.333 102.503,145.5 123.5,146C 112.246,157.279 100.246,167.613 87.5,177C 73.1667,177.667 58.8333,177.667 44.5,177C 43.1703,173.632 43.6703,170.465 46,167.5C 50.5952,159.967 55.4285,152.633 60.5,145.5 Z"/></g>
<g><path style="opacity:1" fill="#fefeff" d="M 211.5,177.5 C 176.329,177.832 141.329,177.498 106.5,176.5C 118.886,167.288 130.553,157.122 141.5,146C 153.523,146.164 165.69,145.997 178,145.5C 184.167,145.667 190.333,145.833 196.5,146C 202.619,153.735 208.119,161.902 213,170.5C 213.667,172.5 213.667,174.5 213,176.5C 212.617,177.056 212.117,177.389 211.5,177.5 Z"/></g>
<g><path style="opacity:1" fill="#99d9ff" d="M 321.5,150.5 C 322.043,150.56 322.376,150.893 322.5,151.5C 318.016,152.811 313.683,152.811 309.5,151.5C 313.702,151.817 317.702,151.483 321.5,150.5 Z"/></g>
<g><path style="opacity:1" fill="#9bdaff" d="M 106.5,176.5 C 141.329,177.498 176.329,177.832 211.5,177.5C 176.002,178.664 140.336,178.831 104.5,178C 105.044,177.283 105.711,176.783 106.5,176.5 Z"/></g>
<g><path style="opacity:1" fill="#85d0ff" d="M 2.5,194.5 C 2.16667,194.5 1.83333,194.5 1.5,194.5C 2.29809,189.94 3.79809,185.606 6,181.5C 5.29725,185.979 4.13058,190.313 2.5,194.5 Z"/></g>
<g><path style="opacity:1" fill="#9bdaff" d="M 30.5,186.5 C 43.5043,186.333 56.5043,186.5 69.5,187C 68.7562,188.039 67.7562,188.539 66.5,188.5C 54.5,187.833 42.5,187.167 30.5,186.5 Z"/></g>
<g><path style="opacity:1" fill="#9bdaff" d="M 65.5,188.5 C 55.1667,189.167 44.8333,189.833 34.5,190.5C 33.9569,190.44 33.6236,190.107 33.5,189.5C 44.1459,188.501 54.8126,188.168 65.5,188.5 Z"/></g>
<g><path style="opacity:1" fill="#9ad9ff" d="M 89.5,187.5 C 134.331,188.333 179.331,188.833 224.5,189C 223.956,189.717 223.289,190.217 222.5,190.5C 177.669,189.667 132.669,189.167 87.5,189C 88.0442,188.283 88.7109,187.783 89.5,187.5 Z"/></g>
<g><path style="opacity:1" fill="#4fbbff" d="M 1.5,194.5 C 1.83333,194.5 2.16667,194.5 2.5,194.5C 2.33432,198.846 2.50098,203.179 3,207.5C 5.16359,214.513 9.99693,218.013 17.5,218C 24.8473,218.284 32.1806,218.284 39.5,218C 32.0601,220.189 24.7268,222.355 17.5,224.5C 13.8333,224.5 10.1667,224.5 6.5,224.5C 3.19232,223.192 0.858985,220.859 -0.5,217.5C -0.5,211.833 -0.5,206.167 -0.5,200.5C 0.285178,198.626 0.951844,196.626 1.5,194.5 Z"/></g>
<g><path style="opacity:1" fill="#fafdff" d="M -0.5,217.5 C 0.858985,220.859 3.19232,223.192 6.5,224.5C 4.16667,224.5 1.83333,224.5 -0.5,224.5C -0.5,222.167 -0.5,219.833 -0.5,217.5 Z"/></g>
</svg>
